<svg height="512.00001pt" viewBox="0 0 512.00001 512.00001" width="512.00001pt" xmlns="http://www.w3.org/2000/svg"><path d="m90.878906 0h30v60.855469h-30zm0 0"/><path d="m150.929688 0h30v60.855469h-30zm0 0"/><path d="m210.976562 0h30v60.855469h-30zm0 0"/><path d="m271.023438 0h30v60.855469h-30zm0 0"/><path d="m331.070312 0h30v60.855469h-30zm0 0"/><path d="m391.121094 0h30v60.855469h-30zm0 0"/><path d="m90.878906 451.144531h30v60.855469h-30zm0 0"/><path d="m150.929688 451.144531h30v60.855469h-30zm0 0"/><path d="m210.976562 451.144531h30v60.855469h-30zm0 0"/><path d="m271.023438 451.144531h30v60.855469h-30zm0 0"/><path d="m331.070312 451.144531h30v60.855469h-30zm0 0"/><path d="m391.121094 451.144531h30v60.855469h-30zm0 0"/><path d="m451.144531 90.878906h60.855469v30h-60.855469zm0 0"/><path d="m451.144531 150.929688h60.855469v30h-60.855469zm0 0"/><path d="m451.144531 210.976562h60.855469v30h-60.855469zm0 0"/><path d="m451.144531 271.023438h60.855469v30h-60.855469zm0 0"/><path d="m451.144531 331.070312h60.855469v30h-60.855469zm0 0"/><path d="m451.144531 391.121094h60.855469v30h-60.855469zm0 0"/><path d="m0 90.878906h60.855469v30h-60.855469zm0 0"/><path d="m0 150.929688h60.855469v30h-60.855469zm0 0"/><path d="m0 210.976562h60.855469v30h-60.855469zm0 0"/><path d="m0 271.023438h60.855469v30h-60.855469zm0 0"/><path d="m0 331.070312h60.855469v30h-60.855469zm0 0"/><path d="m0 391.121094h60.855469v30h-60.855469zm0 0"/><path d="m203 203h106v106h-106zm0 0"/><path d="m90.855469 421.144531h330.289062v-330.289062h-330.289062zm82.144531-248.144531h166v166h-166zm0 0"/></svg>