<?xml version="1.0" ?><svg enable-background="new 0 0 128 128" id="Слой_1" version="1.1" viewBox="0 0 128 128" xml:space="preserve" xmlns="http://www.w3.org/2000/svg" xmlns:xlink="http://www.w3.org/1999/xlink"><path d="M84,13H19v96h65c7.7,0,14-6.3,14-14V27C98,19.3,91.7,13,84,13z" fill="#212121" id="Notepad"/><g id="Pencil"><ellipse cx="101.2" cy="22" fill="#FFD600" rx="4" ry="10" transform="matrix(0.408 -0.913 0.913 0.408 39.8351 105.4477)"/><polygon fill="#FFCCBC" points="62.6,83.9 59.9,108.7 61.3,111.4 64.3,110.6 80.9,92 79.8,87.7 66.6,81.8  "/><polygon fill="#263238" points="59,116.5 59.9,108.7 64.3,110.6  "/><path d="M80.9,92c0,0-0.8-2.5-3.2-3c-1.3-0.3-5.1,1.5-7.3,0.5c-2.6-1.2-1.6-4.7-2.8-5.8c-1.7-1.5-4.9,0.1-4.9,0.1   l29.5-66l18.3,8.2L80.9,92z" fill="#78909C"/><path d="M73.3,79.6c-0.7,1.5-2.5,2.2-4,1.5c-1.5-0.7-2.2-2.5-1.5-4c0.7-1.5,2.5-2.2,4-1.5   C73.3,76.3,74,78.1,73.3,79.6z M80,79.3c-1.5-0.7-3.3,0-4,1.5c-0.7,1.5,0,3.3,1.5,4c1.5,0.7,3.3,0,4-1.5C82.2,81.8,81.5,80,80,79.3   z M75.4,67.4c-1.5-0.7-3.3,0-4,1.5c-0.7,1.5,0,3.3,1.5,4c1.5,0.7,3.3,0,4-1.5C77.6,69.9,77,68.1,75.4,67.4z M83.7,71.1   c-1.5-0.7-3.3,0-4,1.5c-0.7,1.5,0,3.3,1.5,4c1.5,0.7,3.3,0,4-1.5C85.9,73.6,85.2,71.8,83.7,71.1z M79.1,59.2c-1.5-0.7-3.3,0-4,1.5   c-0.7,1.5,0,3.3,1.5,4c1.5,0.7,3.3,0,4-1.5C81.3,61.7,80.6,59.9,79.1,59.2z M87.3,62.9c-1.5-0.7-3.3,0-4,1.5c-0.7,1.5,0,3.3,1.5,4   c1.5,0.7,3.3,0,4-1.5C89.5,65.3,88.8,63.6,87.3,62.9z" fill="#263238"/></g><rect height="96" width="10" x="72" y="13"/><rect height="96" width="3" x="23" y="13"/></svg>