<?xml version="1.0" ?><svg id="Capa_1" style="enable-background:new 0 0 512 512;" version="1.1" viewBox="0 0 512 512" xml:space="preserve" xmlns="http://www.w3.org/2000/svg" xmlns:xlink="http://www.w3.org/1999/xlink"><path d="M456,442V50c0-22.09-17.91-40-40-40H50c-22.09,0-40,17.91-40,40v40h80v372c0,22.09,17.91,40,40,40  h332c22.09,0,40-17.91,40-40v-20H456z" style="fill:#C0E3F0;"/><path d="M336,391.99c-12.15-9.12-20-23.64-20-39.99c0-27.61,22.39-50,50-50s50,22.39,50,50  c0,16.35-7.85,30.87-20,39.99c-8.36,6.29-18.75,10.01-30,10.01S344.36,398.28,336,391.99z" style="fill:#FEB756;"/><path d="M396,442v31.18l-30-20l-30,20V442v-50.01c8.36,6.29,18.75,10.01,30,10.01s21.64-3.72,30-10.01V392  V442z" style="fill:#FD3A4E;"/><path d="M150,209c5.52,0,10-4.48,10-10s-4.48-10-10-10s-10,4.48-10,10S144.48,209,150,209z"/><path d="M502,432h-36V50c0-27.57-22.43-50-50-50H50C22.43,0,0,22.43,0,50v40c0,5.522,4.478,10,10,10h70v362c0,27.57,22.43,50,50,50  h332c27.57,0,50-22.43,50-50v-20C512,436.478,507.522,432,502,432z M20,50c0-16.542,13.458-30,30-30  c8.008,0,15.54,3.122,21.209,8.79C76.878,34.46,80,41.992,80,50v30H20V50z M100,462V90V50c0-10.964-3.516-21.389-10.005-30H416  c16.542,0,30,13.458,30,30v382h-40v-35.314c12.76-11.371,20-27.377,20-44.686c0-33.084-26.916-60-60-60  c-17.729,0-33.679,7.735-44.673,20H150c-5.522,0-10,4.478-10,10s4.478,10,10,10h159.44c-2.22,6.26-3.44,12.989-3.44,20  c0,6.948,1.176,13.684,3.395,20H150c-5.522,0-10,4.478-10,10s4.478,10,10,10h166c1.573,0,3.056-0.374,4.38-1.021  c1.73,2.011,3.608,3.914,5.62,5.707V432H170c-5.522,0-10,4.478-10,10v20c0,16.542-13.458,30-30,30S100,478.542,100,462z   M389.988,383.999C383.031,389.233,374.736,392,366,392c-8.728,0-17.015-2.762-23.968-7.986c-0.011-0.009-0.022-0.017-0.034-0.025  C331.831,376.354,326,364.696,326,352c0-22.056,17.944-40,40-40s40,17.944,40,40C406,364.698,400.167,376.358,389.988,383.999z   M346,408.583c6.354,2.248,13.084,3.417,20,3.417c6.917,0,13.647-1.168,20-3.416v45.91l-14.453-9.635  c-3.359-2.24-7.734-2.24-11.094,0L346,454.494V408.583z M492,462c0,16.542-13.458,30-30,30H169.973  c6.292-8.363,10.027-18.752,10.027-30v-10h146v21.18c0,3.688,2.03,7.076,5.281,8.816c3.253,1.742,7.198,1.549,10.266-0.496  L366,465.198l24.453,16.302c1.673,1.116,3.607,1.68,5.548,1.68c1.617,0,3.239-0.392,4.718-1.184c3.251-1.74,5.281-5.129,5.281-8.816  V452h86V462z"/><path d="M210,80h106c5.522,0,10-4.478,10-10s-4.478-10-10-10H210c-5.522,0-10,4.478-10,10S204.478,80,210,80z"/><path d="M396,189H190c-5.522,0-10,4.478-10,10s4.478,10,10,10h206c5.522,0,10-4.478,10-10S401.522,189,396,189z"/><path d="M150,272h246c5.522,0,10-4.478,10-10s-4.478-10-10-10H150c-5.522,0-10,4.478-10,10S144.478,272,150,272z"/><path d="M150,143h246c5.522,0,10-4.478,10-10s-4.478-10-10-10H150c-5.522,0-10,4.478-10,10S144.478,143,150,143z"/><g/><g/><g/><g/><g/><g/><g/><g/><g/><g/><g/><g/><g/><g/><g/></svg>